<?xml version="1.0" standalone="no"?>
<!DOCTYPE svg PUBLIC "-//W3C//DTD SVG 20010904//EN"
 "http://www.w3.org/TR/2001/REC-SVG-20010904/DTD/svg10.dtd">
<svg version="1.0" xmlns="http://www.w3.org/2000/svg"
 width="300.000000pt" height="257.000000pt" viewBox="0 0 300.000000 257.000000"
 preserveAspectRatio="xMidYMid meet">
<metadata>
Created by potrace 1.10, written by Peter Selinger 2001-2011
</metadata>
<g transform="translate(0.000000,257.000000) scale(0.100000,-0.100000)"
fill="#000000" stroke="none">
<path d="M1445 2306 c-126 -55 -182 -325 -82 -391 33 -21 70 -11 113 32 51 50
76 108 82 185 6 86 -3 129 -33 162 -27 29 -37 31 -80 12z"/>
<path d="M1930 2274 c-110 -37 -193 -87 -276 -166 -111 -106 -143 -193 -88
-237 82 -65 329 27 485 179 96 94 123 177 74 225 -32 33 -96 33 -195 -1z"/>
<path d="M998 2178 c-74 -60 -59 -188 31 -278 58 -58 115 -77 165 -56 94 39
83 189 -20 288 -58 55 -138 76 -176 46z"/>
<path d="M624 1897 c-62 -30 -84 -59 -84 -110 0 -83 64 -153 180 -198 72 -28
219 -32 267 -6 135 72 92 230 -84 309 -34 16 -73 23 -138 25 -79 4 -96 1 -141
-20z"/>
<path d="M2045 1909 c-203 -29 -367 -123 -394 -226 -19 -72 7 -127 90 -188 64
-47 170 -87 283 -106 98 -17 320 -6 418 19 170 46 288 140 288 232 0 134 -183
243 -450 270 -110 11 -153 11 -235 -1z"/>
<path d="M695 1505 c-220 -48 -415 -206 -415 -335 0 -88 65 -129 202 -130 207
0 450 134 513 283 32 78 11 132 -67 171 -60 30 -133 33 -233 11z"/>
<path d="M1561 1430 c-169 -35 -239 -230 -166 -460 50 -155 121 -275 227 -379
199 -198 424 -257 549 -144 152 137 118 420 -83 695 -145 198 -368 320 -527
288z"/>
<path d="M1093 1291 c-171 -80 -347 -405 -372 -689 -24 -279 91 -415 265 -311
101 60 213 220 281 399 90 240 81 521 -19 592 -42 29 -104 33 -155 9z"/>
</g>
</svg>
